<?xml version="1.0" encoding="UTF-8" ?>
<!DOCTYPE svg PUBLIC "-//W3C//DTD SVG 1.1//EN" "http://www.w3.org/Graphics/SVG/1.1/DTD/svg11.dtd">
<svg width="501pt" height="125pt" viewBox="0 0 501 125" version="1.1" xmlns="http://www.w3.org/2000/svg">
<g id="#ffffffff">
</g>
<g id="#000000ff">
<path fill="#000000" opacity="1.00" d=" M 92.49 28.30 C 100.35 28.28 108.20 28.28 116.06 28.29 C 122.75 28.39 130.06 31.80 132.44 38.44 C 135.21 45.95 133.40 56.87 124.74 59.48 C 129.14 60.19 132.70 63.46 134.41 67.49 C 136.96 73.48 136.76 80.73 133.55 86.44 C 130.03 92.48 122.76 95.05 116.08 95.18 C 108.22 95.20 100.36 95.18 92.51 95.18 C 92.49 72.89 92.52 50.59 92.49 28.30 M 98.80 33.26 C 98.76 41.28 98.79 49.31 98.79 57.33 C 105.69 57.00 112.75 58.12 119.55 56.64 C 129.74 54.32 129.99 36.94 119.95 34.23 C 113.07 32.36 105.84 33.63 98.80 33.26 M 98.79 62.70 C 98.78 71.87 98.78 81.04 98.79 90.21 C 104.17 90.19 109.56 90.27 114.95 90.19 C 119.39 89.93 124.46 89.08 127.32 85.30 C 130.32 80.93 130.35 75.06 128.83 70.15 C 127.22 65.21 121.78 62.82 116.93 62.70 C 110.88 62.66 104.83 62.70 98.79 62.70 Z" />
<path fill="#000000" opacity="1.00" d=" M 422.07 28.34 C 424.21 28.29 426.35 28.28 428.50 28.29 C 420.78 53.38 413.15 78.50 405.44 103.60 C 403.34 103.59 401.24 103.59 399.14 103.58 C 406.76 78.49 414.50 53.44 422.07 28.34 Z" />
<path fill="#000000" opacity="1.00" d=" M 260.50 30.58 C 262.48 30.58 264.46 30.58 266.45 30.58 C 266.46 35.17 266.45 39.76 266.46 44.34 C 271.98 44.33 277.51 44.37 283.03 44.32 C 283.07 45.98 283.09 47.65 283.12 49.31 C 277.56 49.32 272.01 49.31 266.45 49.32 C 266.47 59.23 266.42 69.15 266.47 79.07 C 266.50 82.38 267.04 86.06 269.79 88.27 C 273.49 91.47 278.68 89.82 283.10 90.22 C 283.09 91.87 283.09 93.52 283.10 95.18 C 277.50 95.11 271.35 95.99 266.45 92.61 C 262.09 90.08 260.67 84.75 260.54 80.03 C 260.43 69.79 260.52 59.56 260.50 49.33 C 258.54 49.32 256.58 49.31 254.62 49.31 C 254.62 47.65 254.61 46.00 254.61 44.35 C 256.57 44.34 258.52 44.34 260.49 44.34 C 260.50 39.75 260.49 35.17 260.50 30.58 Z" />
<path fill="#000000" opacity="1.00" d=" M 15.62 64.00 C 35.03 57.19 54.38 50.22 73.80 43.43 C 73.80 45.21 73.81 46.99 73.81 48.78 C 56.86 54.48 40.06 60.65 23.07 66.27 C 39.96 72.20 56.94 77.87 73.83 83.82 C 73.81 85.67 73.81 87.53 73.81 89.39 C 54.42 82.55 35.07 75.61 15.66 68.83 C 15.64 67.22 15.63 65.61 15.62 64.00 Z" />
<path fill="#000000" opacity="1.00" d=" M 164.52 43.64 C 170.76 42.58 177.76 44.09 182.28 48.74 C 187.28 53.81 189.50 61.05 189.68 68.05 C 190.01 75.83 188.53 84.20 183.26 90.24 C 177.08 97.58 165.38 98.67 157.40 93.74 C 151.43 89.95 148.34 82.94 147.49 76.13 C 146.63 68.14 147.01 59.48 151.41 52.48 C 154.22 47.81 159.10 44.41 164.52 43.64 M 162.51 49.69 C 156.50 52.66 153.85 59.60 153.37 65.94 C 152.86 73.09 153.34 81.11 158.16 86.85 C 163.11 93.10 173.85 92.98 178.76 86.75 C 183.12 81.59 183.98 74.46 183.75 67.94 C 183.54 61.80 181.61 55.24 176.74 51.17 C 172.80 48.03 167.03 47.70 162.51 49.69 Z" />
<path fill="#000000" opacity="1.00" d=" M 219.52 43.65 C 225.98 42.52 233.25 44.19 237.78 49.17 C 243.21 55.00 245.03 63.27 244.78 71.03 C 244.65 77.88 242.92 85.02 238.31 90.27 C 232.25 97.43 220.94 98.60 212.99 94.06 C 206.69 90.37 203.43 83.13 202.56 76.13 C 201.66 68.14 202.10 59.48 206.48 52.49 C 209.29 47.84 214.12 44.43 219.52 43.65 M 219.16 49.05 C 212.46 51.24 209.17 58.50 208.53 65.05 C 207.86 72.47 208.24 80.84 213.22 86.83 C 218.14 93.07 228.85 92.99 233.78 86.80 C 237.96 81.93 238.94 75.20 238.84 68.98 C 238.80 62.74 237.11 56.05 232.39 51.67 C 228.89 48.40 223.63 47.84 219.16 49.05 Z" />
<path fill="#000000" opacity="1.00" d=" M 309.93 43.75 C 316.82 42.53 324.98 43.71 329.68 49.39 C 334.65 55.40 335.59 63.57 335.30 71.10 C 322.87 71.11 310.45 71.09 298.03 71.11 C 298.14 76.46 298.50 82.49 302.42 86.56 C 306.67 90.88 313.15 91.84 318.94 91.28 C 323.96 90.61 328.70 88.73 333.41 86.95 C 333.42 88.76 333.44 90.56 333.46 92.37 C 325.42 95.64 316.41 97.72 307.82 95.49 C 299.10 93.31 293.41 84.66 292.42 76.07 C 291.73 68.71 291.87 60.84 295.33 54.12 C 298.15 48.56 303.77 44.63 309.93 43.75 M 305.14 51.19 C 300.03 54.28 298.76 60.64 298.16 66.13 C 308.57 66.14 318.98 66.14 329.39 66.13 C 329.27 61.67 328.61 56.90 325.69 53.33 C 320.94 47.14 311.27 47.21 305.14 51.19 Z" />
<path fill="#000000" opacity="1.00" d=" M 356.40 53.12 C 359.36 44.00 370.92 41.99 379.16 44.02 C 379.14 45.82 379.13 47.62 379.14 49.42 C 373.61 48.19 367.10 47.60 362.42 51.44 C 357.71 54.81 356.74 61.02 356.54 66.40 C 356.42 75.99 356.52 85.59 356.48 95.18 C 354.53 95.18 352.59 95.18 350.65 95.18 C 350.64 78.24 350.65 61.29 350.65 44.34 C 352.59 44.34 354.53 44.34 356.48 44.34 C 356.49 47.27 356.54 50.19 356.40 53.12 Z" />
<path fill="#000000" opacity="1.00" d=" M 437.13 43.43 C 456.51 50.26 475.84 57.23 495.22 64.09 C 495.24 65.58 495.28 67.08 495.32 68.58 C 475.96 75.64 456.52 82.46 437.10 89.37 C 437.10 87.45 437.12 85.54 437.15 83.63 C 454.07 77.89 470.96 72.07 487.88 66.29 C 470.90 60.64 454.04 54.63 437.11 48.82 C 437.11 47.02 437.11 45.22 437.13 43.43 Z" />
<path fill="#000000" opacity="1.00" d=" M 381.13 88.30 C 383.24 88.30 385.35 88.30 387.47 88.31 C 387.46 90.60 387.46 92.89 387.46 95.19 C 385.34 95.18 383.22 95.18 381.11 95.16 C 381.12 92.87 381.12 90.58 381.13 88.30 Z" />
</g>
</svg>
